<mxfile host="app.diagrams.net" modified="2023-01-27T14:18:47.356Z" agent="5.0 (Windows NT 10.0; Win64; x64) AppleWebKit/537.36 (KHTML, like Gecko) Chrome/109.0.0.0 Safari/537.36" etag="zjbSujtkj3-5d-Er8rpH" version="20.8.13" type="github">
  <diagram name="SMS Class Diagram" id="lFsvKcf0F2J3RQJ_8Tgk">
    <mxGraphModel dx="794" dy="470" grid="1" gridSize="10" guides="1" tooltips="1" connect="1" arrows="1" fold="1" page="1" pageScale="1" pageWidth="850" pageHeight="1100" math="0" shadow="0">
      <root>
        <mxCell id="0" />
        <mxCell id="1" parent="0" />
      </root>
    </mxGraphModel>
  </diagram>
</mxfile>
